<mxfile host="app.diagrams.net" modified="2022-11-14T00:36:01.707Z" agent="5.0 (Windows NT 10.0; Win64; x64) AppleWebKit/537.36 (KHTML, like Gecko) Chrome/107.0.0.0 Safari/537.36" etag="jY43t2sk0W8Sd05h6qh-" version="20.5.3" type="github">
  <diagram id="Xvlizr6cZXgU1MS0oItX" name="PÃ¡gina-1">
    <mxGraphModel dx="1422" dy="763" grid="1" gridSize="10" guides="1" tooltips="1" connect="1" arrows="1" fold="1" page="1" pageScale="1" pageWidth="827" pageHeight="1169" math="0" shadow="0">
      <root>
        <mxCell id="0" />
        <mxCell id="1" parent="0" />
        <mxCell id="XTLopvMcnS2C1MkqiS8y-1" value="&lt;span style=&quot;color: rgb(33, 41, 46); font-family: &amp;quot;Open Sans&amp;quot;, sans-serif; font-size: 14px; text-align: left;&quot;&gt;&amp;nbsp;Fornecedor&amp;nbsp;&lt;/span&gt;" style="swimlane;html=1;childLayout=stackLayout;resizeParent=1;resizeParentMax=0;horizontal=0;startSize=20;horizontalStack=0;whiteSpace=wrap;" vertex="1" parent="1">
          <mxGeometry x="110" y="360" width="1170" height="400" as="geometry" />
        </mxCell>
        <mxCell id="XTLopvMcnS2C1MkqiS8y-2" value="&lt;br&gt;" style="swimlane;html=1;startSize=20;horizontal=0;" vertex="1" parent="XTLopvMcnS2C1MkqiS8y-1">
          <mxGeometry x="20" width="1150" height="400" as="geometry" />
        </mxCell>
        <mxCell id="XTLopvMcnS2C1MkqiS8y-13" value="" style="points=[[0.145,0.145,0],[0.5,0,0],[0.855,0.145,0],[1,0.5,0],[0.855,0.855,0],[0.5,1,0],[0.145,0.855,0],[0,0.5,0]];shape=mxgraph.bpmn.event;html=1;verticalLabelPosition=bottom;labelBackgroundColor=#ffffff;verticalAlign=top;align=center;perimeter=ellipsePerimeter;outlineConnect=0;aspect=fixed;outline=standard;symbol=message;" vertex="1" parent="XTLopvMcnS2C1MkqiS8y-2">
          <mxGeometry x="50" y="40" width="50" height="50" as="geometry" />
        </mxCell>
        <mxCell id="XTLopvMcnS2C1MkqiS8y-21" value="&lt;span style=&quot;color: rgb(33, 41, 46); font-family: &amp;quot;Open Sans&amp;quot;, sans-serif; font-size: 14px; text-align: left; background-color: rgb(255, 255, 255);&quot;&gt;analisa pedido de compras&lt;/span&gt;" style="points=[[0.25,0,0],[0.5,0,0],[0.75,0,0],[1,0.25,0],[1,0.5,0],[1,0.75,0],[0.75,1,0],[0.5,1,0],[0.25,1,0],[0,0.75,0],[0,0.5,0],[0,0.25,0]];shape=mxgraph.bpmn.task;whiteSpace=wrap;rectStyle=rounded;size=10;html=1;taskMarker=abstract;" vertex="1" parent="XTLopvMcnS2C1MkqiS8y-2">
          <mxGeometry x="150" y="25" width="120" height="80" as="geometry" />
        </mxCell>
        <mxCell id="XTLopvMcnS2C1MkqiS8y-22" value="" style="edgeStyle=elbowEdgeStyle;fontSize=12;html=1;endArrow=blockThin;endFill=1;rounded=0;" edge="1" parent="XTLopvMcnS2C1MkqiS8y-2">
          <mxGeometry width="160" relative="1" as="geometry">
            <mxPoint x="100" y="60" as="sourcePoint" />
            <mxPoint x="150" y="60" as="targetPoint" />
          </mxGeometry>
        </mxCell>
        <mxCell id="XTLopvMcnS2C1MkqiS8y-28" value="" style="points=[[0.25,0.25,0],[0.5,0,0],[0.75,0.25,0],[1,0.5,0],[0.75,0.75,0],[0.5,1,0],[0.25,0.75,0],[0,0.5,0]];shape=mxgraph.bpmn.gateway2;html=1;verticalLabelPosition=bottom;labelBackgroundColor=#ffffff;verticalAlign=top;align=center;perimeter=rhombusPerimeter;outlineConnect=0;outline=none;symbol=none;" vertex="1" parent="XTLopvMcnS2C1MkqiS8y-2">
          <mxGeometry x="320" y="100" width="50" height="50" as="geometry" />
        </mxCell>
        <mxCell id="XTLopvMcnS2C1MkqiS8y-29" value="cancelar a compra" style="points=[[0.25,0,0],[0.5,0,0],[0.75,0,0],[1,0.25,0],[1,0.5,0],[1,0.75,0],[0.75,1,0],[0.5,1,0],[0.25,1,0],[0,0.75,0],[0,0.5,0],[0,0.25,0]];shape=mxgraph.bpmn.task;whiteSpace=wrap;rectStyle=rounded;size=10;html=1;taskMarker=abstract;" vertex="1" parent="XTLopvMcnS2C1MkqiS8y-2">
          <mxGeometry x="410" y="270" width="120" height="80" as="geometry" />
        </mxCell>
        <mxCell id="XTLopvMcnS2C1MkqiS8y-30" value="&lt;span style=&quot;color: rgb(33, 41, 46); font-family: &amp;quot;Open Sans&amp;quot;, sans-serif; font-size: 14px; text-align: left; background-color: rgb(255, 255, 255);&quot;&gt;separa e embala o material&lt;/span&gt;" style="points=[[0.25,0,0],[0.5,0,0],[0.75,0,0],[1,0.25,0],[1,0.5,0],[1,0.75,0],[0.75,1,0],[0.5,1,0],[0.25,1,0],[0,0.75,0],[0,0.5,0],[0,0.25,0]];shape=mxgraph.bpmn.task;whiteSpace=wrap;rectStyle=rounded;size=10;html=1;taskMarker=abstract;" vertex="1" parent="XTLopvMcnS2C1MkqiS8y-2">
          <mxGeometry x="410" y="10" width="120" height="80" as="geometry" />
        </mxCell>
        <mxCell id="XTLopvMcnS2C1MkqiS8y-32" value="" style="edgeStyle=elbowEdgeStyle;fontSize=12;html=1;endArrow=blockThin;endFill=1;rounded=0;entryX=0;entryY=0.5;entryDx=0;entryDy=0;entryPerimeter=0;" edge="1" parent="XTLopvMcnS2C1MkqiS8y-2" target="XTLopvMcnS2C1MkqiS8y-28">
          <mxGeometry width="160" relative="1" as="geometry">
            <mxPoint x="270" y="70" as="sourcePoint" />
            <mxPoint x="430" y="70" as="targetPoint" />
          </mxGeometry>
        </mxCell>
        <mxCell id="XTLopvMcnS2C1MkqiS8y-33" value="" style="edgeStyle=elbowEdgeStyle;fontSize=12;html=1;endArrow=blockThin;endFill=1;rounded=0;exitX=0.5;exitY=1;exitDx=0;exitDy=0;exitPerimeter=0;entryX=-0.008;entryY=0.363;entryDx=0;entryDy=0;entryPerimeter=0;" edge="1" parent="XTLopvMcnS2C1MkqiS8y-2" source="XTLopvMcnS2C1MkqiS8y-28" target="XTLopvMcnS2C1MkqiS8y-29">
          <mxGeometry width="160" relative="1" as="geometry">
            <mxPoint x="310" y="180" as="sourcePoint" />
            <mxPoint x="400" y="300" as="targetPoint" />
            <Array as="points">
              <mxPoint x="345" y="170" />
            </Array>
          </mxGeometry>
        </mxCell>
        <mxCell id="XTLopvMcnS2C1MkqiS8y-34" value="&lt;b&gt;aprovado&lt;/b&gt;" style="text;html=1;align=center;verticalAlign=middle;resizable=0;points=[];autosize=1;strokeColor=none;fillColor=none;" vertex="1" parent="XTLopvMcnS2C1MkqiS8y-2">
          <mxGeometry x="330" y="50" width="80" height="30" as="geometry" />
        </mxCell>
        <mxCell id="XTLopvMcnS2C1MkqiS8y-35" value="&lt;b&gt;reprovado&lt;/b&gt;" style="text;html=1;align=center;verticalAlign=middle;resizable=0;points=[];autosize=1;strokeColor=none;fillColor=none;" vertex="1" parent="XTLopvMcnS2C1MkqiS8y-2">
          <mxGeometry x="340" y="295" width="80" height="30" as="geometry" />
        </mxCell>
        <mxCell id="XTLopvMcnS2C1MkqiS8y-36" value="&lt;span style=&quot;color: rgb(33, 41, 46); font-family: &amp;quot;Open Sans&amp;quot;, sans-serif; font-size: 14px; text-align: left; background-color: rgb(255, 255, 255);&quot;&gt;emite nota fiscal&lt;/span&gt;" style="points=[[0.25,0,0],[0.5,0,0],[0.75,0,0],[1,0.25,0],[1,0.5,0],[1,0.75,0],[0.75,1,0],[0.5,1,0],[0.25,1,0],[0,0.75,0],[0,0.5,0],[0,0.25,0]];shape=mxgraph.bpmn.task;whiteSpace=wrap;rectStyle=rounded;size=10;html=1;taskMarker=abstract;" vertex="1" parent="XTLopvMcnS2C1MkqiS8y-2">
          <mxGeometry x="410" y="105" width="120" height="80" as="geometry" />
        </mxCell>
        <mxCell id="XTLopvMcnS2C1MkqiS8y-37" value="" style="endArrow=none;html=1;rounded=0;exitX=0.5;exitY=0;exitDx=0;exitDy=0;exitPerimeter=0;" edge="1" parent="XTLopvMcnS2C1MkqiS8y-2" source="XTLopvMcnS2C1MkqiS8y-28">
          <mxGeometry width="50" height="50" relative="1" as="geometry">
            <mxPoint x="370" y="200" as="sourcePoint" />
            <mxPoint x="345" y="80" as="targetPoint" />
          </mxGeometry>
        </mxCell>
        <mxCell id="XTLopvMcnS2C1MkqiS8y-38" value="" style="edgeStyle=elbowEdgeStyle;fontSize=12;html=1;endArrow=blockThin;endFill=1;rounded=0;" edge="1" parent="XTLopvMcnS2C1MkqiS8y-2">
          <mxGeometry width="160" relative="1" as="geometry">
            <mxPoint x="370" y="80" as="sourcePoint" />
            <mxPoint x="410" y="80" as="targetPoint" />
          </mxGeometry>
        </mxCell>
        <mxCell id="XTLopvMcnS2C1MkqiS8y-39" value="" style="edgeStyle=elbowEdgeStyle;fontSize=12;html=1;endArrow=blockThin;endFill=1;rounded=0;entryX=0;entryY=0.5;entryDx=0;entryDy=0;entryPerimeter=0;" edge="1" parent="XTLopvMcnS2C1MkqiS8y-2" target="XTLopvMcnS2C1MkqiS8y-36">
          <mxGeometry width="160" relative="1" as="geometry">
            <mxPoint x="350" y="80" as="sourcePoint" />
            <mxPoint x="540" y="100" as="targetPoint" />
          </mxGeometry>
        </mxCell>
        <mxCell id="XTLopvMcnS2C1MkqiS8y-40" value="" style="points=[[0.145,0.145,0],[0.5,0,0],[0.855,0.145,0],[1,0.5,0],[0.855,0.855,0],[0.5,1,0],[0.145,0.855,0],[0,0.5,0]];shape=mxgraph.bpmn.event;html=1;verticalLabelPosition=bottom;labelBackgroundColor=#ffffff;verticalAlign=top;align=center;perimeter=ellipsePerimeter;outlineConnect=0;aspect=fixed;outline=end;symbol=terminate2;" vertex="1" parent="XTLopvMcnS2C1MkqiS8y-2">
          <mxGeometry x="600" y="285" width="50" height="50" as="geometry" />
        </mxCell>
        <mxCell id="XTLopvMcnS2C1MkqiS8y-41" value="" style="edgeStyle=elbowEdgeStyle;fontSize=12;html=1;endArrow=blockThin;endFill=1;rounded=0;" edge="1" parent="XTLopvMcnS2C1MkqiS8y-2">
          <mxGeometry width="160" relative="1" as="geometry">
            <mxPoint x="530" y="310" as="sourcePoint" />
            <mxPoint x="600" y="310" as="targetPoint" />
          </mxGeometry>
        </mxCell>
        <mxCell id="XTLopvMcnS2C1MkqiS8y-42" value="&lt;span style=&quot;color: rgb(33, 41, 46); font-family: &amp;quot;Open Sans&amp;quot;, sans-serif; font-size: 14px; text-align: left; background-color: rgb(255, 255, 255);&quot;&gt;enviados para o Almoxarifado&lt;/span&gt;" style="points=[[0.25,0,0],[0.5,0,0],[0.75,0,0],[1,0.25,0],[1,0.5,0],[1,0.75,0],[0.75,1,0],[0.5,1,0],[0.25,1,0],[0,0.75,0],[0,0.5,0],[0,0.25,0]];shape=mxgraph.bpmn.task;whiteSpace=wrap;rectStyle=rounded;size=10;html=1;taskMarker=abstract;" vertex="1" parent="XTLopvMcnS2C1MkqiS8y-2">
          <mxGeometry x="790" y="60" width="120" height="80" as="geometry" />
        </mxCell>
        <mxCell id="XTLopvMcnS2C1MkqiS8y-44" value="" style="endArrow=none;html=1;rounded=0;entryX=1;entryY=0.5;entryDx=0;entryDy=0;entryPerimeter=0;exitX=1;exitY=0.5;exitDx=0;exitDy=0;exitPerimeter=0;" edge="1" parent="XTLopvMcnS2C1MkqiS8y-2" source="XTLopvMcnS2C1MkqiS8y-36" target="XTLopvMcnS2C1MkqiS8y-30">
          <mxGeometry width="50" height="50" relative="1" as="geometry">
            <mxPoint x="530" y="120" as="sourcePoint" />
            <mxPoint x="580" y="70" as="targetPoint" />
          </mxGeometry>
        </mxCell>
        <mxCell id="XTLopvMcnS2C1MkqiS8y-5" value="&lt;span style=&quot;color: rgb(33, 41, 46); font-family: &amp;quot;Open Sans&amp;quot;, sans-serif; font-size: 14px; text-align: left;&quot;&gt;Empresa ServeBem Ltda&lt;/span&gt;" style="swimlane;html=1;childLayout=stackLayout;resizeParent=1;resizeParentMax=0;horizontal=0;startSize=20;horizontalStack=0;whiteSpace=wrap;" vertex="1" parent="1">
          <mxGeometry x="110" y="10" width="1170" height="300" as="geometry" />
        </mxCell>
        <mxCell id="XTLopvMcnS2C1MkqiS8y-6" value="Estoque" style="swimlane;html=1;startSize=20;horizontal=0;" vertex="1" parent="XTLopvMcnS2C1MkqiS8y-5">
          <mxGeometry x="20" width="1150" height="300" as="geometry" />
        </mxCell>
        <mxCell id="XTLopvMcnS2C1MkqiS8y-9" value="" style="points=[[0.145,0.145,0],[0.5,0,0],[0.855,0.145,0],[1,0.5,0],[0.855,0.855,0],[0.5,1,0],[0.145,0.855,0],[0,0.5,0]];shape=mxgraph.bpmn.event;html=1;verticalLabelPosition=bottom;labelBackgroundColor=#ffffff;verticalAlign=top;align=center;perimeter=ellipsePerimeter;outlineConnect=0;aspect=fixed;outline=standard;symbol=conditional;" vertex="1" parent="XTLopvMcnS2C1MkqiS8y-6">
          <mxGeometry x="50" y="35" width="50" height="50" as="geometry" />
        </mxCell>
        <mxCell id="XTLopvMcnS2C1MkqiS8y-10" value="&lt;b&gt;Estoque &amp;lt; 30%&lt;/b&gt;" style="text;html=1;align=center;verticalAlign=middle;resizable=0;points=[];autosize=1;strokeColor=none;fillColor=none;" vertex="1" parent="XTLopvMcnS2C1MkqiS8y-6">
          <mxGeometry x="20" y="85" width="110" height="30" as="geometry" />
        </mxCell>
        <mxCell id="XTLopvMcnS2C1MkqiS8y-11" value="&lt;span style=&quot;color: rgb(33, 41, 46); font-family: &amp;quot;Open Sans&amp;quot;, sans-serif; font-size: 14px; text-align: left; background-color: rgb(255, 255, 255);&quot;&gt;pedido de compras&lt;/span&gt;" style="points=[[0.25,0,0],[0.5,0,0],[0.75,0,0],[1,0.25,0],[1,0.5,0],[1,0.75,0],[0.75,1,0],[0.5,1,0],[0.25,1,0],[0,0.75,0],[0,0.5,0],[0,0.25,0]];shape=mxgraph.bpmn.task;whiteSpace=wrap;rectStyle=rounded;size=10;html=1;taskMarker=abstract;" vertex="1" parent="XTLopvMcnS2C1MkqiS8y-6">
          <mxGeometry x="150" y="20" width="120" height="80" as="geometry" />
        </mxCell>
        <mxCell id="XTLopvMcnS2C1MkqiS8y-12" value="" style="edgeStyle=elbowEdgeStyle;fontSize=12;html=1;endArrow=blockThin;endFill=1;rounded=0;" edge="1" parent="XTLopvMcnS2C1MkqiS8y-6">
          <mxGeometry width="160" relative="1" as="geometry">
            <mxPoint x="100" y="60" as="sourcePoint" />
            <mxPoint x="150" y="60" as="targetPoint" />
          </mxGeometry>
        </mxCell>
        <mxCell id="XTLopvMcnS2C1MkqiS8y-15" value="&lt;span style=&quot;color: rgb(33, 41, 46); font-family: &amp;quot;Open Sans&amp;quot;, sans-serif; font-size: 14px; text-align: left; background-color: rgb(255, 255, 255);&quot;&gt;aguarda resposta de aprovaÃ§Ã£o do fornecedor&amp;nbsp;&lt;/span&gt;" style="points=[[0.25,0,0],[0.5,0,0],[0.75,0,0],[1,0.25,0],[1,0.5,0],[1,0.75,0],[0.75,1,0],[0.5,1,0],[0.25,1,0],[0,0.75,0],[0,0.5,0],[0,0.25,0]];shape=mxgraph.bpmn.task;whiteSpace=wrap;rectStyle=rounded;size=10;html=1;taskMarker=abstract;" vertex="1" parent="XTLopvMcnS2C1MkqiS8y-6">
          <mxGeometry x="310" y="20" width="120" height="80" as="geometry" />
        </mxCell>
        <mxCell id="XTLopvMcnS2C1MkqiS8y-16" value="" style="edgeStyle=elbowEdgeStyle;fontSize=12;html=1;endArrow=blockThin;endFill=1;rounded=0;" edge="1" parent="XTLopvMcnS2C1MkqiS8y-6">
          <mxGeometry width="160" relative="1" as="geometry">
            <mxPoint x="270" y="60" as="sourcePoint" />
            <mxPoint x="310" y="60" as="targetPoint" />
          </mxGeometry>
        </mxCell>
        <mxCell id="XTLopvMcnS2C1MkqiS8y-17" value="" style="points=[[0.145,0.145,0],[0.5,0,0],[0.855,0.145,0],[1,0.5,0],[0.855,0.855,0],[0.5,1,0],[0.145,0.855,0],[0,0.5,0]];shape=mxgraph.bpmn.event;html=1;verticalLabelPosition=bottom;labelBackgroundColor=#ffffff;verticalAlign=top;align=center;perimeter=ellipsePerimeter;outlineConnect=0;aspect=fixed;outline=standard;symbol=timer;" vertex="1" parent="XTLopvMcnS2C1MkqiS8y-6">
          <mxGeometry x="330" y="85" width="50" height="50" as="geometry" />
        </mxCell>
        <mxCell id="XTLopvMcnS2C1MkqiS8y-20" value="&lt;b&gt;2 dias&lt;/b&gt;" style="text;html=1;align=center;verticalAlign=middle;resizable=0;points=[];autosize=1;strokeColor=none;fillColor=none;" vertex="1" parent="XTLopvMcnS2C1MkqiS8y-6">
          <mxGeometry x="370" y="100" width="60" height="30" as="geometry" />
        </mxCell>
        <mxCell id="XTLopvMcnS2C1MkqiS8y-23" value="" style="points=[[0.145,0.145,0],[0.5,0,0],[0.855,0.145,0],[1,0.5,0],[0.855,0.855,0],[0.5,1,0],[0.145,0.855,0],[0,0.5,0]];shape=mxgraph.bpmn.event;html=1;verticalLabelPosition=bottom;labelBackgroundColor=#ffffff;verticalAlign=top;align=center;perimeter=ellipsePerimeter;outlineConnect=0;aspect=fixed;outline=standard;symbol=message;" vertex="1" parent="XTLopvMcnS2C1MkqiS8y-6">
          <mxGeometry x="840" y="60" width="50" height="50" as="geometry" />
        </mxCell>
        <mxCell id="XTLopvMcnS2C1MkqiS8y-25" value="&lt;span style=&quot;color: rgb(33, 41, 46); font-family: &amp;quot;Open Sans&amp;quot;, sans-serif; font-size: 14px; text-align: left; background-color: rgb(255, 255, 255);&quot;&gt;&amp;nbsp;recebe o pedido&lt;/span&gt;" style="points=[[0.25,0,0],[0.5,0,0],[0.75,0,0],[1,0.25,0],[1,0.5,0],[1,0.75,0],[0.75,1,0],[0.5,1,0],[0.25,1,0],[0,0.75,0],[0,0.5,0],[0,0.25,0]];shape=mxgraph.bpmn.task;whiteSpace=wrap;rectStyle=rounded;size=10;html=1;taskMarker=abstract;" vertex="1" parent="XTLopvMcnS2C1MkqiS8y-6">
          <mxGeometry x="930" y="50" width="120" height="80" as="geometry" />
        </mxCell>
        <mxCell id="XTLopvMcnS2C1MkqiS8y-47" value="" style="points=[[0.25,0.25,0],[0.5,0,0],[0.75,0.25,0],[1,0.5,0],[0.75,0.75,0],[0.5,1,0],[0.25,0.75,0],[0,0.5,0]];shape=mxgraph.bpmn.gateway2;html=1;verticalLabelPosition=bottom;labelBackgroundColor=#ffffff;verticalAlign=top;align=center;perimeter=rhombusPerimeter;outlineConnect=0;outline=none;symbol=none;" vertex="1" parent="XTLopvMcnS2C1MkqiS8y-6">
          <mxGeometry x="460" y="135" width="50" height="50" as="geometry" />
        </mxCell>
        <mxCell id="XTLopvMcnS2C1MkqiS8y-50" value="" style="points=[[0.145,0.145,0],[0.5,0,0],[0.855,0.145,0],[1,0.5,0],[0.855,0.855,0],[0.5,1,0],[0.145,0.855,0],[0,0.5,0]];shape=mxgraph.bpmn.event;html=1;verticalLabelPosition=bottom;labelBackgroundColor=#ffffff;verticalAlign=top;align=center;perimeter=ellipsePerimeter;outlineConnect=0;aspect=fixed;outline=end;symbol=terminate2;" vertex="1" parent="XTLopvMcnS2C1MkqiS8y-6">
          <mxGeometry x="1080" y="60" width="50" height="50" as="geometry" />
        </mxCell>
        <mxCell id="XTLopvMcnS2C1MkqiS8y-52" value="" style="edgeStyle=elbowEdgeStyle;fontSize=12;html=1;endArrow=blockThin;endFill=1;rounded=0;exitX=0.5;exitY=1;exitDx=0;exitDy=0;exitPerimeter=0;entryX=0;entryY=0.5;entryDx=0;entryDy=0;entryPerimeter=0;" edge="1" parent="XTLopvMcnS2C1MkqiS8y-6" source="XTLopvMcnS2C1MkqiS8y-17" target="XTLopvMcnS2C1MkqiS8y-47">
          <mxGeometry width="160" relative="1" as="geometry">
            <mxPoint x="310" y="210" as="sourcePoint" />
            <mxPoint x="470" y="210" as="targetPoint" />
            <Array as="points">
              <mxPoint x="350" y="160" />
            </Array>
          </mxGeometry>
        </mxCell>
        <mxCell id="XTLopvMcnS2C1MkqiS8y-53" value="solicita cancelamento de compra" style="points=[[0.25,0,0],[0.5,0,0],[0.75,0,0],[1,0.25,0],[1,0.5,0],[1,0.75,0],[0.75,1,0],[0.5,1,0],[0.25,1,0],[0,0.75,0],[0,0.5,0],[0,0.25,0]];shape=mxgraph.bpmn.task;whiteSpace=wrap;rectStyle=rounded;size=10;html=1;taskMarker=abstract;" vertex="1" parent="XTLopvMcnS2C1MkqiS8y-6">
          <mxGeometry x="630" y="200" width="120" height="80" as="geometry" />
        </mxCell>
        <mxCell id="XTLopvMcnS2C1MkqiS8y-54" value="" style="edgeStyle=elbowEdgeStyle;fontSize=12;html=1;endArrow=blockThin;endFill=1;rounded=0;exitX=0.5;exitY=1;exitDx=0;exitDy=0;exitPerimeter=0;entryX=-0.025;entryY=0.588;entryDx=0;entryDy=0;entryPerimeter=0;" edge="1" parent="XTLopvMcnS2C1MkqiS8y-6" source="XTLopvMcnS2C1MkqiS8y-47" target="XTLopvMcnS2C1MkqiS8y-53">
          <mxGeometry width="160" relative="1" as="geometry">
            <mxPoint x="380" y="220" as="sourcePoint" />
            <mxPoint x="540" y="220" as="targetPoint" />
            <Array as="points">
              <mxPoint x="485" y="230" />
            </Array>
          </mxGeometry>
        </mxCell>
        <mxCell id="XTLopvMcnS2C1MkqiS8y-55" value="&lt;b&gt;prazo excedido&lt;/b&gt;" style="text;html=1;align=center;verticalAlign=middle;resizable=0;points=[];autosize=1;strokeColor=none;fillColor=none;" vertex="1" parent="XTLopvMcnS2C1MkqiS8y-6">
          <mxGeometry x="490" y="250" width="110" height="30" as="geometry" />
        </mxCell>
        <mxCell id="XTLopvMcnS2C1MkqiS8y-57" value="" style="edgeStyle=elbowEdgeStyle;fontSize=12;html=1;endArrow=blockThin;endFill=1;rounded=0;entryX=0;entryY=0.5;entryDx=0;entryDy=0;entryPerimeter=0;exitX=0.5;exitY=0;exitDx=0;exitDy=0;exitPerimeter=0;" edge="1" parent="XTLopvMcnS2C1MkqiS8y-6" source="XTLopvMcnS2C1MkqiS8y-47" target="XTLopvMcnS2C1MkqiS8y-23">
          <mxGeometry width="160" relative="1" as="geometry">
            <mxPoint x="480" y="130" as="sourcePoint" />
            <mxPoint x="630" y="80" as="targetPoint" />
            <Array as="points">
              <mxPoint x="485" y="85" />
            </Array>
          </mxGeometry>
        </mxCell>
        <mxCell id="XTLopvMcnS2C1MkqiS8y-58" value="" style="points=[[0.145,0.145,0],[0.5,0,0],[0.855,0.145,0],[1,0.5,0],[0.855,0.855,0],[0.5,1,0],[0.145,0.855,0],[0,0.5,0]];shape=mxgraph.bpmn.event;html=1;verticalLabelPosition=bottom;labelBackgroundColor=#ffffff;verticalAlign=top;align=center;perimeter=ellipsePerimeter;outlineConnect=0;aspect=fixed;outline=standard;symbol=message;" vertex="1" parent="XTLopvMcnS2C1MkqiS8y-6">
          <mxGeometry x="800" y="215" width="50" height="50" as="geometry" />
        </mxCell>
        <mxCell id="XTLopvMcnS2C1MkqiS8y-59" value="" style="edgeStyle=elbowEdgeStyle;fontSize=12;html=1;endArrow=blockThin;endFill=1;rounded=0;exitX=1;exitY=0.5;exitDx=0;exitDy=0;exitPerimeter=0;entryX=0;entryY=0.5;entryDx=0;entryDy=0;entryPerimeter=0;" edge="1" parent="XTLopvMcnS2C1MkqiS8y-6" source="XTLopvMcnS2C1MkqiS8y-53" target="XTLopvMcnS2C1MkqiS8y-58">
          <mxGeometry width="160" relative="1" as="geometry">
            <mxPoint x="710" y="240" as="sourcePoint" />
            <mxPoint x="870" y="240" as="targetPoint" />
          </mxGeometry>
        </mxCell>
        <mxCell id="XTLopvMcnS2C1MkqiS8y-61" value="" style="edgeStyle=elbowEdgeStyle;fontSize=12;html=1;endArrow=blockThin;endFill=1;rounded=0;exitX=1;exitY=0.5;exitDx=0;exitDy=0;exitPerimeter=0;" edge="1" parent="XTLopvMcnS2C1MkqiS8y-6" source="XTLopvMcnS2C1MkqiS8y-23">
          <mxGeometry width="160" relative="1" as="geometry">
            <mxPoint x="910" y="210" as="sourcePoint" />
            <mxPoint x="930" y="85" as="targetPoint" />
          </mxGeometry>
        </mxCell>
        <mxCell id="XTLopvMcnS2C1MkqiS8y-62" value="" style="edgeStyle=elbowEdgeStyle;fontSize=12;html=1;endArrow=blockThin;endFill=1;rounded=0;" edge="1" parent="XTLopvMcnS2C1MkqiS8y-6">
          <mxGeometry width="160" relative="1" as="geometry">
            <mxPoint x="1050" y="90" as="sourcePoint" />
            <mxPoint x="1080" y="90" as="targetPoint" />
          </mxGeometry>
        </mxCell>
        <mxCell id="XTLopvMcnS2C1MkqiS8y-63" value="&lt;b&gt;dentro do prazo&lt;/b&gt;" style="text;html=1;align=center;verticalAlign=middle;resizable=0;points=[];autosize=1;strokeColor=none;fillColor=none;" vertex="1" parent="XTLopvMcnS2C1MkqiS8y-6">
          <mxGeometry x="490" y="60" width="110" height="30" as="geometry" />
        </mxCell>
        <mxCell id="XTLopvMcnS2C1MkqiS8y-64" value="" style="edgeStyle=elbowEdgeStyle;fontSize=12;html=1;endFill=0;startFill=0;endSize=6;startSize=6;dashed=1;dashPattern=1 4;endArrow=openThin;startArrow=none;rounded=0;entryX=0.5;entryY=1;entryDx=0;entryDy=0;entryPerimeter=0;" edge="1" parent="XTLopvMcnS2C1MkqiS8y-6" target="XTLopvMcnS2C1MkqiS8y-58">
          <mxGeometry width="160" relative="1" as="geometry">
            <mxPoint x="820" y="290" as="sourcePoint" />
            <mxPoint x="980" y="290" as="targetPoint" />
          </mxGeometry>
        </mxCell>
        <mxCell id="XTLopvMcnS2C1MkqiS8y-14" value="" style="edgeStyle=elbowEdgeStyle;fontSize=12;html=1;endFill=0;startFill=0;endSize=6;startSize=6;dashed=1;dashPattern=1 4;endArrow=openThin;startArrow=none;rounded=0;exitX=0.5;exitY=1;exitDx=0;exitDy=0;exitPerimeter=0;entryX=0.5;entryY=0;entryDx=0;entryDy=0;entryPerimeter=0;" edge="1" parent="1" source="XTLopvMcnS2C1MkqiS8y-11" target="XTLopvMcnS2C1MkqiS8y-13">
          <mxGeometry width="160" relative="1" as="geometry">
            <mxPoint x="290" y="200" as="sourcePoint" />
            <mxPoint x="200" y="480" as="targetPoint" />
            <Array as="points">
              <mxPoint x="200" y="180" />
              <mxPoint x="200" y="320" />
              <mxPoint x="200" y="310" />
            </Array>
          </mxGeometry>
        </mxCell>
        <mxCell id="XTLopvMcnS2C1MkqiS8y-43" value="" style="edgeStyle=elbowEdgeStyle;fontSize=12;html=1;endArrow=blockThin;endFill=1;rounded=0;entryX=0;entryY=0.5;entryDx=0;entryDy=0;entryPerimeter=0;" edge="1" parent="1" target="XTLopvMcnS2C1MkqiS8y-42">
          <mxGeometry width="160" relative="1" as="geometry">
            <mxPoint x="660" y="460" as="sourcePoint" />
            <mxPoint x="690" y="460" as="targetPoint" />
          </mxGeometry>
        </mxCell>
        <mxCell id="XTLopvMcnS2C1MkqiS8y-56" value="" style="edgeStyle=elbowEdgeStyle;fontSize=12;html=1;endFill=0;startFill=0;endSize=6;startSize=6;dashed=1;dashPattern=1 4;endArrow=openThin;startArrow=none;rounded=0;entryX=-0.017;entryY=0.963;entryDx=0;entryDy=0;entryPerimeter=0;" edge="1" parent="1" target="XTLopvMcnS2C1MkqiS8y-29">
          <mxGeometry width="160" relative="1" as="geometry">
            <mxPoint x="950" y="300" as="sourcePoint" />
            <mxPoint x="870" y="330" as="targetPoint" />
            <Array as="points">
              <mxPoint x="430" y="490" />
              <mxPoint x="430" y="290" />
              <mxPoint x="410" y="530" />
            </Array>
          </mxGeometry>
        </mxCell>
        <mxCell id="XTLopvMcnS2C1MkqiS8y-46" value="" style="edgeStyle=elbowEdgeStyle;fontSize=12;html=1;endFill=0;startFill=0;endSize=6;startSize=6;dashed=1;dashPattern=1 4;endArrow=openThin;startArrow=none;rounded=0;entryX=0.5;entryY=1;entryDx=0;entryDy=0;entryPerimeter=0;" edge="1" parent="1" source="XTLopvMcnS2C1MkqiS8y-42" target="XTLopvMcnS2C1MkqiS8y-23">
          <mxGeometry width="160" relative="1" as="geometry">
            <mxPoint x="750" y="420" as="sourcePoint" />
            <mxPoint x="740" y="280" as="targetPoint" />
            <Array as="points">
              <mxPoint x="995" y="300" />
            </Array>
          </mxGeometry>
        </mxCell>
      </root>
    </mxGraphModel>
  </diagram>
</mxfile>
